<svg 
  width="274" 
  height="40" 
  viewBox="0 0 274 40" 
  fill="#BABABA" 
  xmlns="http://www.w3.org/2000/svg"
  role="img"
  aria-labelledby="columbia-svg"
>
<title id="columbia-svg">Columbia University</title>
<path d="M16.9556 19.489H17.0005H26.7842C26.7393 18.5914 27.0086 17.5592 27.3228 16.7962C27.6099 16.0916 27.988 15.4059 28.3678 14.7172C29.2944 13.037 30.2311 11.3385 29.8809 9.3013C29.6117 7.73052 28.3101 6.60853 26.7394 6.47389C24.9648 6.33305 23.3493 6.864 21.7155 7.40101C20.7461 7.71962 19.7702 8.04036 18.7508 8.22419C18.5914 8.25607 18.4093 8.03888 18.2208 7.81387L18.2207 7.81386C18.1438 7.72208 18.0658 7.62901 17.9878 7.551C19.2444 6.60853 19.1098 4.72358 17.6288 3.91574C17.539 3.7811 17.5839 2.704 17.6288 2.65912C17.6691 2.61877 17.8817 2.63283 18.1159 2.64831C18.4026 2.66727 18.7215 2.68835 18.7956 2.61423C18.8854 2.4796 18.8854 1.3576 18.7956 1.26784C18.7506 1.22275 18.4563 1.23429 18.1689 1.24556C17.8842 1.25673 17.6062 1.26763 17.5839 1.22296C17.539 1.17808 17.539 0.908808 17.539 0.639534V0.639516C17.539 0.370246 17.539 0.10098 17.4941 0.056101C17.4044 0.0112213 16.8658 0.0112186 16.8658 0.0112186H17.0902C17.0902 0.0112186 16.5517 -0.0336584 16.4619 0.056101C16.3768 0.112855 16.3814 0.52845 16.3849 0.849105V0.849112C16.3869 1.03559 16.3886 1.18996 16.3721 1.22296C16.3347 1.24167 16.1334 1.23698 15.905 1.23165C15.5855 1.2242 15.2127 1.21551 15.1604 1.26784C15.0706 1.3576 15.0258 2.4796 15.1604 2.61423C15.234 2.68784 15.5356 2.66756 15.8159 2.64871C16.0484 2.63307 16.2662 2.61843 16.3273 2.65912C16.3721 2.704 16.417 3.7811 16.3273 3.91574C14.8911 4.72358 14.7116 6.60853 15.9682 7.551C15.8721 7.6311 15.776 7.7455 15.6819 7.85747C15.5124 8.05921 15.3496 8.25306 15.2053 8.22419C14.1858 8.04036 13.21 7.71962 12.2406 7.40101C10.6067 6.864 8.99125 6.33305 7.21669 6.47389C5.6459 6.60853 4.34439 7.73052 4.07511 9.3013C3.72497 11.3385 4.66167 13.037 5.58823 14.7172C5.96806 15.4059 6.34618 16.0916 6.63325 16.7962C6.94741 17.5592 7.21669 18.5914 7.17181 19.489H16.9556ZM23.4631 13.5649C23.3734 13.3854 22.2514 13.5649 22.2514 13.5649C22.187 13.5863 22.1227 13.864 22.0535 14.1628C21.9778 14.4893 21.8963 14.841 21.8026 14.9113C21.7353 14.9786 21.4323 14.9674 21.1294 14.9561C20.8265 14.9449 20.5235 14.9337 20.4562 15.001C20.3216 15.1357 20.0972 16.0333 20.1869 16.1679C20.2275 16.2084 20.4877 16.1941 20.7692 16.1785H20.7693C21.111 16.1596 21.4841 16.139 21.5333 16.2128C21.6679 16.5718 21.3089 17.2001 20.8601 17.604C20.546 17.8733 20.1869 18.0528 19.7381 18.0528C19.0649 18.008 18.302 17.1104 18.0327 15.6742C17.8532 14.642 18.302 12.6673 18.7059 11.7248C19.341 10.3639 19.2832 9.96079 19.2603 9.80143C19.2493 9.7243 19.2464 9.70426 19.3342 9.66035C20.2562 9.05904 21.7511 8.60095 22.9874 8.22213L22.9876 8.22206C23.1353 8.1768 23.2794 8.13267 23.4183 8.08956C24.6749 7.73052 25.8866 7.46125 27.0535 7.91005C28.9833 8.673 28.5345 11.0965 27.8165 12.5775C26.8291 14.5971 25.1686 17.5592 23.8222 17.9182C23.1041 18.1426 22.6553 17.8284 22.6553 17.245C22.6553 16.7962 22.7451 16.3474 23.0143 16.123C23.0143 16.123 24.4056 16.123 24.5402 15.9884C24.6749 15.8537 24.8095 15.0459 24.7646 14.8664C24.7423 14.7771 24.3647 14.8099 23.9798 14.8434C23.5907 14.8773 23.1941 14.9117 23.149 14.8215C23.1294 14.7627 23.2041 14.5495 23.2869 14.3131C23.3935 14.0087 23.5137 13.6659 23.4631 13.5649ZM11.7765 14.2418C11.7076 13.9263 11.6388 13.6108 11.57 13.5649C11.57 13.5649 10.448 13.3854 10.3134 13.5649C10.2698 13.6303 10.3639 13.8866 10.462 14.1533C10.5657 14.4354 10.6737 14.7292 10.6275 14.8215C10.5824 14.9117 10.1858 14.8773 9.79677 14.8434C9.41179 14.8099 9.0342 14.7771 9.01187 14.8664C8.967 15.0459 9.10163 15.8537 9.23627 15.9884C9.37091 16.123 10.7622 16.123 10.7622 16.123C11.0315 16.3474 11.1212 16.7962 11.1212 17.245C11.1212 17.8284 10.6724 18.1426 9.95435 17.9182C8.60796 17.5143 6.94741 14.5971 5.96006 12.5775C5.24198 11.0965 4.79319 8.62812 6.72301 7.91005C7.88988 7.46125 9.10163 7.73052 10.3583 8.08956C11.7047 8.49348 13.4101 9.03203 14.4423 9.66035C14.5341 9.72151 14.532 9.74621 14.525 9.83206C14.5113 9.99819 14.4789 10.3933 15.0706 11.7248C15.5194 12.6673 15.9233 14.6869 15.7438 15.6742C15.5194 17.1553 14.7116 18.0528 14.0384 18.0528C13.5896 18.0528 13.2306 17.8733 12.9164 17.604C12.4676 17.2001 12.1086 16.5718 12.2432 16.2128C12.2838 16.1722 12.544 16.1866 12.8255 16.2022H12.8256H12.8256C13.1673 16.2211 13.5404 16.2417 13.5896 16.1679C13.6794 16.0333 13.455 15.1357 13.3203 15.001C13.253 14.9337 12.9501 14.9449 12.6471 14.9561C12.3442 14.9674 12.0413 14.9786 11.9739 14.9113C11.9081 14.8454 11.8423 14.5436 11.7765 14.2418ZM40.0675 20.2977C38.1377 18.6371 37.644 16.438 37.644 14.5531C37.644 13.2067 38.048 10.9178 39.9329 9.21242C41.3242 7.91091 43.2091 7.14795 46.0814 7.14795C47.1528 7.14795 47.8383 7.21812 48.6032 7.29642C48.7034 7.30668 48.8049 7.31707 48.9088 7.32747C49.2762 7.37069 49.602 7.43472 49.9062 7.49452C50.2337 7.5589 50.5362 7.61836 50.8387 7.64163C51.0631 7.64163 51.1528 7.77627 51.1528 7.86603C51.1528 7.92439 51.1444 8.00804 51.1312 8.13892L51.1312 8.13907L51.1311 8.13959L51.1311 8.13965L51.1311 8.13979C51.1138 8.31085 51.0884 8.56239 51.0631 8.94314C51.0406 9.25729 51.0406 9.68363 51.0406 10.0819C51.0406 10.4803 51.0406 10.8505 51.0182 11.0525C51.0182 11.3666 50.9733 11.5013 50.7938 11.5013C50.6591 11.5013 50.6143 11.3666 50.6143 11.0525C50.6143 10.4691 50.345 9.75098 49.8513 9.2573C49.223 8.5841 47.6971 8.04554 45.9019 8.04554C44.1965 8.04554 43.0745 8.49434 42.2218 9.2573C40.7856 10.5588 40.4266 12.3989 40.4266 14.3287C40.4266 18.9513 43.9721 21.285 46.5751 21.285C48.3254 21.285 49.3576 21.1055 50.1655 20.2079C50.4796 19.8489 50.7489 19.2655 50.8387 18.9064C50.8835 18.5923 50.9284 18.5025 51.1079 18.5025C51.2426 18.5025 51.2875 18.6371 51.2875 18.8167C51.2875 19.0411 51.0631 20.7465 50.8387 21.4197C50.7489 21.7338 50.6591 21.8685 50.345 22.0031C49.582 22.3173 48.101 22.4519 46.8444 22.4519C44.0618 22.407 41.8179 21.8236 40.0675 20.2977ZM53.6675 15.9442C53.6675 13.1616 55.5075 9.52637 60.3994 9.52637C64.4835 9.52637 66.9967 11.905 66.9967 15.63C66.9967 19.355 64.3937 22.3171 60.2199 22.3171C55.5524 22.362 53.6675 18.8613 53.6675 15.9442ZM64.7079 16.2583C64.7079 12.6231 62.5985 10.3342 59.9058 10.3342C58.0208 10.3342 55.9115 11.3664 55.9115 15.4505C55.9115 18.8613 57.7964 21.5541 60.938 21.5541C62.06 21.5541 64.7079 20.9707 64.7079 16.2583ZM73.1902 20.8807C72.8311 20.6115 72.8311 19.4895 72.8311 17.3801L72.876 14.5527V14.5514C72.876 12.0842 72.876 11.6354 72.9209 11.097C72.9209 10.5135 73.0555 10.2443 73.5043 10.1545C73.6839 10.1096 73.9531 10.1096 74.1326 10.1096C74.357 10.1096 74.4468 10.1096 74.4468 9.97497C74.4468 9.88521 74.3122 9.84033 74.0878 9.84033C73.7391 9.84033 73.2244 9.85416 72.7664 9.86646L72.7662 9.86647C72.3991 9.87633 72.0684 9.88521 71.8887 9.88521C71.6939 9.88521 71.3892 9.87676 71.0443 9.86719L71.0442 9.86719C70.5945 9.85471 70.0765 9.84033 69.6447 9.84033C69.4203 9.84033 69.2856 9.84033 69.2856 9.97497C69.2856 10.0647 69.3754 10.1096 69.5549 10.1096C69.7793 10.1096 69.9588 10.1096 70.0935 10.1545C70.632 10.2891 70.7667 10.5584 70.8116 11.097C70.8564 11.6355 70.8564 12.0843 70.8564 14.5527V17.425C70.8564 18.906 70.8564 20.2075 70.7667 20.8807C70.6769 21.3744 70.5872 21.7334 70.273 21.7783C70.2142 21.7783 70.1384 21.7869 70.0529 21.7965C69.9425 21.809 69.816 21.8232 69.6896 21.8232C69.4652 21.8232 69.4203 21.8681 69.4203 21.9578C69.4203 22.0925 69.51 22.1374 69.7344 22.1374C70.1235 22.1374 70.6325 22.1224 71.0621 22.1097L71.0623 22.1097C71.376 22.1005 71.6474 22.0925 71.7989 22.0925C72.3801 22.0925 72.9111 22.1092 73.5146 22.1282H73.5147C74.3094 22.1532 75.2298 22.1822 76.5562 22.1822C77.4089 22.1822 77.4986 22.0925 77.5884 21.7334C77.6781 21.2398 77.8128 20.028 77.8128 19.8485C77.8128 19.669 77.8128 19.5792 77.6781 19.5792C77.5435 19.5792 77.4986 19.669 77.4986 19.8036C77.4986 20.1178 77.2742 20.5666 77.0947 20.791C76.6459 21.2398 76.0176 21.2398 75.1649 21.2398C73.9082 21.2398 73.4594 21.1051 73.1902 20.8807ZM80.9499 14.5083C80.9499 12.0399 80.9499 11.5911 80.905 11.0525C80.8601 10.514 80.7255 10.2447 80.1869 10.1101C80.0523 10.0652 79.783 10.0652 79.5586 10.0652C79.3791 10.0652 79.2893 10.0203 79.2893 9.93055C79.2893 9.79591 79.424 9.7959 79.6483 9.7959C80.1326 9.7959 80.6748 9.81037 81.1433 9.82288C81.4998 9.8324 81.8137 9.84078 82.027 9.84078C82.2104 9.84078 82.5235 9.83152 82.8652 9.82142C83.2759 9.80927 83.7281 9.7959 84.0466 9.7959C84.271 9.7959 84.4056 9.84079 84.4056 9.93055C84.4056 10.0652 84.3158 10.0652 84.1363 10.0652C83.9568 10.0652 83.867 10.0652 83.6426 10.1101C83.1938 10.1998 83.0592 10.4691 83.0592 11.0525C83.0143 11.5911 83.0143 12.0399 83.0143 14.5083V16.7971C83.0143 19.1758 83.508 20.1631 84.271 20.7914C84.989 21.3749 85.752 21.4646 86.2905 21.4646C87.0086 21.4646 87.9062 21.2402 88.5345 20.567C89.4321 19.6694 89.477 18.1884 89.477 16.5278V14.5083C89.477 12.0399 89.477 11.5911 89.4321 11.0525C89.3872 10.514 89.2526 10.2447 88.714 10.1101C88.5794 10.0652 88.3101 10.0652 88.1306 10.0652C87.9511 10.0652 87.8613 10.0203 87.8613 9.93055C87.8613 9.79591 87.996 9.7959 88.2204 9.7959C88.914 9.7959 89.6966 9.82559 89.9887 9.83668L89.9888 9.83668C90.0558 9.83922 90.0969 9.84078 90.1053 9.84078C90.1677 9.84078 90.3332 9.83535 90.549 9.82828L90.5498 9.82825L90.5502 9.82824C90.9549 9.81496 91.5359 9.7959 91.9454 9.7959C92.1698 9.7959 92.3044 9.84079 92.3044 9.93055C92.3044 10.0652 92.2147 10.0652 91.9903 10.0652C91.8107 10.0652 91.721 10.0652 91.4966 10.1101C91.0478 10.1998 90.9131 10.4691 90.9131 11.0525C90.8683 11.5911 90.8683 12.0399 90.8683 14.5083V16.2586C90.8683 18.0538 90.6887 19.9836 89.2975 21.1505C88.1306 22.1378 86.9637 22.3173 85.8866 22.3173C85.0339 22.3173 83.4631 22.2724 82.2514 21.1953C81.3987 20.4324 80.8152 19.2206 80.8152 16.8869L80.9499 14.5083ZM96.5697 9.43746C96.435 9.43746 96.3453 9.5721 96.3004 9.84138L94.7296 20.4779C94.6398 21.0613 94.5052 21.6896 94.0564 21.7794C93.7871 21.8243 93.6974 21.8243 93.5627 21.8243C93.3832 21.8243 93.2935 21.8691 93.2935 21.9589C93.2935 22.0935 93.4281 22.1384 93.6076 22.1384C93.9129 22.1384 94.2903 22.124 94.6171 22.1115L94.6172 22.1115L94.6174 22.1115L94.6176 22.1115C94.8672 22.1019 95.0873 22.0935 95.2233 22.0935C95.3276 22.0935 95.506 22.1003 95.7246 22.1085C96.0703 22.1216 96.5163 22.1384 96.9287 22.1384C97.198 22.1384 97.3326 22.0935 97.3326 21.9589C97.3326 21.8691 97.2429 21.8243 97.1082 21.8243C97.0159 21.8243 96.8812 21.8031 96.7044 21.7754C96.6234 21.7627 96.5337 21.7486 96.435 21.7345C96.1658 21.6447 95.9414 21.5101 95.9414 21.1959C95.9414 20.9266 95.9414 20.7471 95.9862 20.433L96.839 13.9254H96.8838C97.1147 14.4226 97.4088 15.0393 97.6882 15.6253L97.6887 15.6262L97.6909 15.631L97.6917 15.6325C98.1172 16.5247 98.5081 17.3443 98.5893 17.5607C98.8137 18.0544 100.07 20.5227 100.474 21.2857C100.743 21.7794 100.923 22.0935 101.058 22.0935C101.192 22.0935 101.282 21.9589 101.641 21.1959L105.187 13.7908H105.231L106.219 20.9715C106.264 21.4652 106.219 21.6447 106.129 21.6896C105.994 21.7345 105.95 21.7794 105.95 21.8691C105.95 21.9589 106.084 22.0038 106.443 22.0487C107.116 22.0935 109.36 22.1384 109.764 22.1384C109.989 22.1384 110.168 22.0935 110.168 21.9589C110.168 21.8242 110.034 21.8243 109.899 21.8243C109.675 21.8243 109.36 21.7794 108.867 21.6447C108.373 21.4652 108.194 21.0164 108.059 19.9842L106.578 9.88626C106.488 9.5721 106.398 9.39258 106.264 9.39258C106.129 9.39258 106.039 9.52721 105.905 9.79649L101.462 19.1315L97.0185 9.93114C96.7941 9.52722 96.7043 9.43746 96.5697 9.43746ZM113.715 14.5083C113.715 12.0399 113.715 11.5911 113.67 11.0525C113.625 10.514 113.49 10.2447 112.952 10.1101C112.817 10.0652 112.548 10.0652 112.323 10.0652C112.144 10.0652 112.054 10.0203 112.054 9.93055C112.054 9.79591 112.189 9.7959 112.413 9.7959C112.944 9.7959 113.544 9.81328 113.997 9.82641C114.273 9.83438 114.494 9.84078 114.612 9.84078C115.057 9.84078 115.447 9.82718 115.798 9.81495L115.798 9.81495C116.085 9.80497 116.345 9.7959 116.587 9.7959C119.549 9.7959 120.043 11.3667 120.043 12.2643C120.043 13.6107 119.28 14.4185 118.382 15.1366C119.729 15.5854 121.344 16.7523 121.344 18.6821C121.344 20.4324 119.998 22.2276 116.991 22.2276C116.799 22.2276 116.364 22.2073 115.908 22.1861H115.908L115.908 22.1861L115.907 22.1861C115.403 22.1625 114.872 22.1378 114.612 22.1378C114.461 22.1378 114.189 22.1458 113.876 22.155L113.876 22.155C113.446 22.1677 112.937 22.1827 112.548 22.1827C112.323 22.1827 112.234 22.1378 112.234 22.0032C112.234 21.9134 112.279 21.8685 112.503 21.8685C112.629 21.8685 112.756 21.8543 112.866 21.8418C112.952 21.8322 113.028 21.8237 113.086 21.8237C113.401 21.7788 113.49 21.4197 113.58 20.9261C113.67 20.2529 113.67 18.9514 113.67 17.4703L113.715 14.5083ZM115.645 14.7775C115.645 14.9122 115.689 14.9571 115.779 14.9571C115.914 15.0019 116.183 15.0019 116.542 15.0019C117.081 15.0019 117.44 14.9571 117.709 14.6878C118.113 14.3287 118.382 13.7453 118.382 12.9375C118.382 11.8604 117.754 10.4242 116.363 10.4242C116.138 10.4242 116.004 10.4242 115.824 10.4691C115.689 10.514 115.689 10.5589 115.689 10.7384L115.645 14.7775ZM117.799 16.1239C117.44 15.8995 117.081 15.7649 116.452 15.72H115.734C115.689 15.72 115.645 15.7649 115.645 15.8547V19.7143C115.645 20.7914 115.689 21.0607 116.228 21.2851C116.677 21.4646 117.036 21.4646 117.44 21.4646C118.158 21.4646 119.414 21.0607 119.414 19.3553C119.414 18.323 119.055 16.9767 117.799 16.1239ZM125.029 14.507V14.5083L125.074 17.4703V17.4707C125.074 19.0413 125.074 20.3427 124.984 21.0158C124.894 21.4646 124.805 21.7788 124.49 21.8237C124.432 21.8237 124.356 21.8322 124.27 21.8418C124.16 21.8543 124.033 21.8685 123.907 21.8685C123.683 21.8685 123.638 21.9134 123.638 22.0032C123.638 22.1378 123.727 22.1827 123.952 22.1827C124.341 22.1827 124.85 22.1677 125.28 22.155L125.28 22.155C125.593 22.1458 125.865 22.1378 126.016 22.1378C126.192 22.1378 126.458 22.1447 126.781 22.1531C127.282 22.1661 127.92 22.1827 128.574 22.1827C128.754 22.1827 128.889 22.1378 128.889 22.0032C128.889 21.9134 128.799 21.8685 128.619 21.8685H128.619C128.35 21.8685 127.991 21.8685 127.767 21.8237C127.273 21.7339 127.138 21.4646 127.093 21.0158C127.049 20.2977 127.049 18.9962 127.049 17.4254V14.5531C127.049 12.0848 127.049 11.636 127.093 11.0974C127.093 10.514 127.228 10.2447 127.677 10.1549C127.856 10.1101 127.991 10.1101 128.17 10.1101C128.35 10.1101 128.44 10.0652 128.44 9.93055C128.44 9.84079 128.305 9.7959 128.081 9.7959C127.762 9.7959 127.323 9.80927 126.925 9.82142C126.593 9.83152 126.289 9.84078 126.106 9.84078C125.9 9.84078 125.572 9.83136 125.217 9.82116C124.796 9.80908 124.337 9.7959 123.997 9.7959C123.727 9.7959 123.593 9.84079 123.593 9.93055C123.593 10.0652 123.683 10.1101 123.862 10.1101C124.042 10.1101 124.266 10.1101 124.445 10.1549C124.805 10.1998 124.939 10.514 124.984 11.0525C125.029 11.591 125.029 12.0397 125.029 14.507ZM134.988 17.8743C134.899 17.8743 134.854 17.9192 134.854 18.009L133.956 20.3427C133.777 20.7466 133.732 21.1506 133.732 21.3301C133.732 21.6442 133.866 21.8238 134.405 21.8238H134.629C134.809 21.8238 134.854 21.8686 134.854 21.9584C134.854 22.093 134.764 22.1379 134.584 22.1379C134.315 22.1379 134.012 22.1267 133.709 22.1155C133.406 22.1043 133.103 22.093 132.834 22.093C132.778 22.093 132.65 22.0975 132.475 22.1036L132.475 22.1036C132.094 22.1168 131.489 22.1379 130.904 22.1379C130.68 22.1379 130.59 22.093 130.59 21.9584C130.59 21.8686 130.635 21.8238 130.77 21.8238C130.904 21.8238 131.129 21.8238 131.263 21.7789C132.026 21.6891 132.34 21.1057 132.655 20.2978L136.783 10.0653C136.963 9.57161 137.098 9.39209 137.232 9.39209C137.367 9.39209 137.457 9.52673 137.636 9.93065C137.857 10.4204 138.731 12.62 139.649 14.9261L139.65 14.9281C140.413 16.8483 141.206 18.842 141.675 19.9837C142.304 21.4647 142.752 21.6891 143.112 21.7789C143.336 21.8238 143.605 21.8238 143.785 21.8238C143.919 21.8238 144.009 21.8238 144.009 21.9584C144.009 22.093 143.874 22.1379 143.246 22.1379C142.663 22.1379 141.451 22.1379 140.149 22.093C139.835 22.093 139.656 22.093 139.656 21.9584C139.656 21.8686 139.701 21.8238 139.88 21.8238C140.015 21.7789 140.105 21.6442 140.015 21.4647L138.713 18.009C138.668 17.9192 138.624 17.8743 138.534 17.8743H134.988ZM138.309 17.0665C138.399 17.0665 138.399 17.0216 138.399 16.9768L136.918 12.9376C136.918 12.8927 136.873 12.8029 136.828 12.8029C136.783 12.8029 136.739 12.8927 136.739 12.9376L135.258 16.9319C135.258 16.9767 135.258 17.0665 135.302 17.0665H138.309ZM152.401 8.89749C152.446 9.5258 152.446 10.0644 152.446 13.0264L152.401 15.9436C152.401 18.771 153.164 20.2072 154.152 21.1048C155.543 22.4063 157.428 22.4512 158.46 22.4512C159.717 22.4512 161.108 22.2716 162.499 21.0599C164.115 19.6686 164.339 17.3349 164.339 15.1806V13.0713C164.339 10.1092 164.339 9.57069 164.384 8.94237C164.429 8.26918 164.564 7.91014 165.102 7.82038C165.371 7.7755 165.461 7.7755 165.686 7.7755C165.91 7.7755 166.045 7.73062 166.045 7.59598C166.045 7.46134 165.91 7.41646 165.641 7.41646C165.146 7.41646 164.444 7.43533 163.95 7.4486L163.95 7.44861C163.682 7.4558 163.476 7.46135 163.397 7.46135C163.397 7.46135 162.14 7.41646 161.153 7.41646C160.884 7.41646 160.749 7.46134 160.749 7.59598C160.749 7.73062 160.839 7.7755 161.063 7.7755C161.287 7.7755 161.646 7.7755 161.781 7.82038C162.454 7.95502 162.589 8.26918 162.634 8.94237C162.679 9.57069 162.679 10.1092 162.679 13.0713V15.4948C162.679 17.5144 162.634 19.2647 161.557 20.3418C160.794 21.1048 159.717 21.374 158.864 21.374C158.236 21.374 157.338 21.2843 156.44 20.5662C155.498 19.8032 154.915 18.5915 154.915 15.7641V13.0264C154.915 10.0644 154.915 9.5258 154.959 8.89749C155.004 8.22429 155.139 7.86526 155.677 7.7755C155.947 7.73062 156.037 7.73061 156.261 7.73061C156.44 7.73061 156.575 7.68574 156.575 7.5511C156.575 7.41646 156.44 7.37158 156.126 7.37158C155.756 7.37158 155.208 7.38518 154.716 7.39741C154.314 7.4074 153.949 7.41646 153.748 7.41646C153.497 7.41646 153.131 7.4082 152.713 7.39876C152.157 7.38621 151.509 7.37158 150.92 7.37158C150.606 7.37158 150.471 7.41646 150.471 7.5511C150.471 7.68574 150.561 7.73061 150.786 7.73061C151.055 7.73061 151.414 7.73062 151.549 7.7755C152.222 7.91014 152.356 8.22429 152.401 8.89749ZM170.088 19.8936C170.133 21.1502 170.313 21.599 170.672 21.6888C170.941 21.7785 171.255 21.8234 171.524 21.8234C171.704 21.8234 171.794 21.8683 171.794 21.958C171.794 22.0927 171.659 22.1376 171.435 22.1376C170.735 22.1376 170.225 22.1186 169.867 22.1054C169.674 22.0982 169.525 22.0927 169.415 22.0927C169.377 22.0927 169.288 22.0963 169.16 22.1015C168.839 22.1146 168.275 22.1376 167.665 22.1376C167.44 22.1376 167.306 22.1376 167.306 21.958C167.306 21.8683 167.395 21.8234 167.575 21.8234C167.799 21.8234 168.069 21.8234 168.293 21.7336C168.697 21.599 168.787 21.1502 168.787 19.7141L168.921 10.0649C168.921 9.75077 168.966 9.52637 169.146 9.52637C169.276 9.52637 169.382 9.64423 169.534 9.81162L169.534 9.81171C169.591 9.87527 169.655 9.94596 169.729 10.02C169.909 10.2444 172.422 12.8924 174.801 15.271C175.553 16.0236 176.791 17.3216 177.605 18.1759L177.606 18.1773L177.607 18.1784C178.006 18.5963 178.302 18.9075 178.391 18.996H178.481L178.301 11.6806C178.301 10.6932 178.122 10.3791 177.763 10.1996C177.538 10.1098 177.134 10.1098 176.91 10.1098C176.73 10.1098 176.641 10.0649 176.641 9.97516C176.641 9.84052 176.82 9.84053 177.045 9.84053C177.562 9.84053 178.046 9.85704 178.427 9.87003C178.674 9.87846 178.878 9.88541 179.019 9.88541C179.077 9.88541 179.18 9.88081 179.321 9.87454C179.62 9.86126 180.086 9.84053 180.635 9.84053C180.859 9.84053 180.994 9.84052 180.994 9.97516C180.994 10.0649 180.904 10.1098 180.68 10.1098C180.5 10.1098 180.366 10.1098 180.186 10.1547C179.737 10.2893 179.603 10.6484 179.603 11.546L179.423 21.8234C179.423 22.1824 179.378 22.3171 179.199 22.3171C179.019 22.3171 178.84 22.1376 178.66 21.958C177.98 21.307 176.85 20.168 175.671 18.9786L175.67 18.9782L175.669 18.9769C175.06 18.3632 174.438 17.7362 173.858 17.1559C172.553 15.883 171.247 14.444 170.511 13.6329L170.511 13.6326L170.51 13.632L170.51 13.6319L170.508 13.6293L170.507 13.6284C170.233 13.3265 170.039 13.1123 169.954 13.027H169.909L170.088 19.8936ZM185.168 14.5062V14.5088L185.213 17.4708V17.4716C185.213 19.042 185.213 20.3432 185.123 21.0163C185.034 21.4651 184.944 21.7793 184.63 21.8241C184.571 21.8241 184.495 21.8327 184.41 21.8423C184.299 21.8548 184.173 21.869 184.046 21.869C183.822 21.869 183.777 21.9139 183.777 22.0037C183.777 22.1383 183.867 22.1832 184.091 22.1832C184.48 22.1832 184.989 22.1682 185.419 22.1555L185.419 22.1555C185.733 22.1463 186.004 22.1383 186.156 22.1383C186.332 22.1383 186.598 22.1452 186.921 22.1536C187.421 22.1666 188.059 22.1832 188.714 22.1832C188.893 22.1832 189.028 22.1383 189.028 22.0037C189.028 21.9139 188.938 21.869 188.759 21.869H188.759C188.489 21.869 188.13 21.869 187.906 21.8241C187.412 21.7344 187.278 21.4651 187.233 21.0163C187.188 20.2982 187.188 18.9967 187.188 17.4259V14.5536C187.188 12.0853 187.188 11.6365 187.233 11.0979C187.233 10.5145 187.367 10.2452 187.816 10.1554C187.996 10.1106 188.13 10.1105 188.31 10.1105C188.489 10.1105 188.579 10.0657 188.579 9.93103C188.579 9.84127 188.445 9.79639 188.22 9.79639C187.902 9.79639 187.463 9.80976 187.064 9.82191C186.733 9.83201 186.429 9.84127 186.245 9.84127C186.04 9.84127 185.712 9.83185 185.356 9.82165C184.936 9.80957 184.477 9.79639 184.136 9.79639C183.867 9.79639 183.732 9.84127 183.732 9.93103C183.732 10.0657 183.822 10.1105 184.001 10.1105C184.181 10.1105 184.405 10.1106 184.585 10.1554C184.944 10.2003 185.079 10.5145 185.123 11.053C185.168 11.5914 185.168 12.0401 185.168 14.5062ZM192.342 11.3672C191.983 10.4696 191.669 10.2901 191.086 10.1105C190.861 10.0657 190.592 10.0657 190.457 10.0657C190.323 10.0657 190.278 10.0208 190.278 9.93103C190.278 9.7964 190.457 9.79639 190.682 9.79639C191.148 9.79639 191.642 9.80983 192.089 9.822C192.459 9.83207 192.796 9.84127 193.06 9.84127C193.228 9.84127 193.464 9.83357 193.741 9.82455C194.134 9.81179 194.607 9.79639 195.08 9.79639C195.259 9.79639 195.439 9.84127 195.439 9.93103C195.439 10.0657 195.349 10.0657 195.215 10.0657C194.945 10.0657 194.721 10.0657 194.586 10.2003C194.452 10.2901 194.407 10.3798 194.407 10.5593C194.407 10.7837 194.541 11.2325 194.766 11.816L197.593 19.2211H197.638C197.759 18.9176 197.921 18.5153 198.107 18.0512L198.109 18.0464L198.112 18.037C199.027 15.7541 200.534 11.9911 200.869 11.0979C200.959 10.8735 201.004 10.6491 201.004 10.5145C201.004 10.3798 200.959 10.2452 200.78 10.2003C200.6 10.1554 200.331 10.1105 200.106 10.1105C199.972 10.1105 199.837 10.1105 199.837 9.9759C199.837 9.84126 199.972 9.79639 200.286 9.79639C200.815 9.79639 201.286 9.81563 201.612 9.82892C201.783 9.83592 201.914 9.84127 201.991 9.84127C202.106 9.84127 202.309 9.83317 202.543 9.82385C202.86 9.81124 203.233 9.79639 203.517 9.79639C203.742 9.79639 203.876 9.84127 203.876 9.93103C203.876 10.0657 203.787 10.0657 203.607 10.0657C203.428 10.0657 203.113 10.0657 202.799 10.2452C202.575 10.3798 202.35 10.6491 201.902 11.7262C201.506 12.6878 201.181 13.3999 200.77 14.3005C200.529 14.829 200.259 15.4225 199.927 16.1693C199.449 17.2698 199.029 18.2454 198.68 19.0561L198.678 19.0623L198.672 19.075C198.271 20.0073 197.964 20.7198 197.773 21.151C197.369 22.0934 197.234 22.3627 197.01 22.3627C196.788 22.3627 196.698 22.1435 196.392 21.4016L196.381 21.3754L192.342 11.3672ZM206.48 14.5047V14.5072L206.525 17.6039C206.525 19.0849 206.525 20.3864 206.436 21.0596C206.346 21.5533 206.256 21.9123 205.942 21.9572C205.883 21.9572 205.807 21.9658 205.722 21.9754C205.611 21.9879 205.485 22.0021 205.358 22.0021C205.134 22.0021 205.089 22.047 205.089 22.1367C205.089 22.2714 205.179 22.3163 205.403 22.3163C205.792 22.3163 206.301 22.3013 206.731 22.2886C207.045 22.2794 207.316 22.2714 207.468 22.2714C207.85 22.2714 208.246 22.2849 208.731 22.3014C209.499 22.3275 210.489 22.3611 212.001 22.3611C212.629 22.3611 212.764 22.3611 212.898 21.9572C212.988 21.6431 213.123 20.5211 213.123 20.162C213.123 19.9825 213.123 19.8479 212.988 19.8479C212.863 19.8479 212.854 19.8862 212.818 20.0338L212.808 20.0723C212.719 20.7455 212.494 21.1045 212.09 21.284C211.686 21.4635 210.968 21.4635 210.564 21.4635C208.904 21.4635 208.635 21.1943 208.59 20.0723V17.559V16.2575C208.59 16.1229 208.59 16.078 208.679 16.078C209.083 16.078 210.699 16.078 211.013 16.1229C211.597 16.1677 211.821 16.437 211.911 16.7512C211.956 16.9756 211.956 17.1551 211.956 17.3346C211.956 17.4244 211.956 17.4693 212.09 17.4693C212.225 17.4693 212.225 17.2897 212.225 17.1551C212.225 17.0653 212.225 16.3921 212.27 16.078C212.302 15.4628 212.358 15.1513 212.386 14.9918L212.387 14.9914L212.387 14.9909L212.387 14.9903L212.387 14.9898L212.387 14.9892C212.398 14.9291 212.404 14.8909 212.404 14.8662C212.404 14.7765 212.315 14.7316 212.27 14.7316C212.206 14.7316 212.164 14.7777 212.096 14.8533L212.096 14.8536L212.096 14.854C212.069 14.8838 212.038 14.9181 212.001 14.956C211.866 15.0906 211.642 15.1355 211.238 15.1804C210.879 15.2253 208.994 15.2253 208.635 15.2253C208.5 15.2253 208.5 15.1804 208.5 15.0458V10.9168C208.5 10.7822 208.545 10.7373 208.635 10.7373C208.994 10.7373 210.699 10.7373 210.968 10.7822C211.776 10.8719 211.911 11.0515 212.045 11.3656C212.135 11.5451 212.135 11.8144 212.135 11.9491C212.135 12.0837 212.135 12.1735 212.27 12.1735C212.404 12.1735 212.449 12.0837 212.449 11.9939C212.494 11.8144 212.539 11.0963 212.539 10.9168C212.569 10.4082 212.619 10.1588 212.649 10.0093L212.649 10.009C212.664 9.93434 212.674 9.88454 212.674 9.83971C212.674 9.74995 212.674 9.70508 212.584 9.70508C212.539 9.70508 212.494 9.7163 212.449 9.72751C212.404 9.73873 212.36 9.74995 212.315 9.74995C212.236 9.77603 212.113 9.78695 211.961 9.80034C211.852 9.80999 211.728 9.82091 211.597 9.83971H207.513C207.324 9.83971 207.032 9.83178 206.694 9.82258C206.228 9.8099 205.673 9.79483 205.179 9.79483C204.954 9.79483 204.82 9.79484 204.82 9.92948C204.82 10.0192 204.91 10.0641 205.089 10.0641C205.314 10.0641 205.583 10.0641 205.717 10.109C206.256 10.2436 206.391 10.5129 206.436 11.0515C206.48 11.5898 206.48 12.0385 206.48 14.5047ZM217.706 14.5083V14.5057C217.706 12.0396 217.706 11.5909 217.662 11.0525C217.617 10.514 217.482 10.2447 216.943 10.1101C216.809 10.0652 216.54 10.0652 216.315 10.0652C216.136 10.0652 216.046 10.0203 216.046 9.93055C216.046 9.79591 216.181 9.7959 216.405 9.7959C216.922 9.7959 217.505 9.81241 217.964 9.8254L217.964 9.82541C218.262 9.83383 218.508 9.84078 218.649 9.84078C218.924 9.84078 219.387 9.82907 219.839 9.81761L219.839 9.8176C220.272 9.80663 220.696 9.7959 220.938 9.7959C221.97 9.7959 223.047 9.88566 223.945 10.514C224.394 10.8281 225.067 11.636 225.067 12.758C225.067 13.9697 224.573 15.0917 222.912 16.3932C224.349 18.2333 225.471 19.6694 226.458 20.7017C227.356 21.6441 228.029 21.7788 228.298 21.8237C228.478 21.8685 228.612 21.8685 228.747 21.8685C228.882 21.8685 228.926 21.9134 228.926 22.0032C228.926 22.1378 228.792 22.1827 228.612 22.1827H227.041C226.144 22.1827 225.74 22.0929 225.291 21.8685C224.573 21.5095 223.99 20.7465 223.047 19.4899C222.736 19.0745 222.414 18.611 222.137 18.2107L222.137 18.2102C221.815 17.7458 221.552 17.3664 221.431 17.2459C221.342 17.1562 221.252 17.1113 221.117 17.1113L219.681 17.0664C219.591 17.0664 219.547 17.1113 219.547 17.201V17.4254C219.547 18.9514 219.547 20.2529 219.636 20.9261C219.681 21.4197 219.771 21.7788 220.265 21.8237C220.489 21.8685 220.848 21.8685 221.072 21.8685H221.072C221.207 21.8685 221.252 21.9134 221.252 22.0032C221.252 22.1378 221.117 22.1827 220.938 22.1827C220.304 22.1827 219.549 22.1624 219.054 22.1491L219.054 22.1491C218.812 22.1426 218.633 22.1378 218.559 22.1378C218.429 22.1378 218.176 22.1455 217.879 22.1545L217.879 22.1545L217.879 22.1545L217.878 22.1545C217.459 22.1673 216.952 22.1827 216.584 22.1827C216.36 22.1827 216.27 22.1378 216.27 22.0032C216.27 21.9134 216.315 21.8685 216.54 21.8685C216.666 21.8685 216.792 21.8543 216.903 21.8418C216.988 21.8322 217.064 21.8237 217.123 21.8237C217.437 21.7788 217.527 21.4197 217.617 20.9261C217.706 20.253 217.706 18.9518 217.706 17.4711V17.4703V14.5083ZM219.636 15.8098C219.636 15.9893 219.681 16.0342 219.771 16.1239C220.13 16.2586 220.624 16.3035 221.028 16.3035C221.701 16.3035 221.88 16.2586 222.194 16.0342C222.688 15.6751 223.137 14.9122 223.137 13.5658C223.137 11.232 221.611 10.5589 220.624 10.5589C220.22 10.5589 219.906 10.5589 219.771 10.6037C219.636 10.6486 219.636 10.6935 219.636 10.8281V15.8098ZM229.82 21.3737C229.82 21.7328 229.865 21.7776 230.134 21.9123C230.852 22.2264 231.57 22.3611 232.513 22.3611C233.366 22.3611 234.308 22.2264 235.116 21.6879C236.283 20.9249 236.642 19.8029 236.642 18.8605C236.642 17.2897 235.924 16.2125 233.949 14.6866L233.5 14.3276C232.109 13.2954 231.75 12.7568 231.75 11.9939C231.75 11.0514 232.468 10.3333 233.68 10.3333C234.757 10.3333 235.251 10.827 235.475 11.1411C235.789 11.5451 235.879 12.0836 235.879 12.2183C235.879 12.4426 235.924 12.5324 236.058 12.5324C236.193 12.5324 236.238 12.3978 236.238 12.0387C236.238 11.1191 236.26 10.6252 236.273 10.3354C236.279 10.215 236.283 10.1299 236.283 10.064C236.283 9.97427 236.193 9.92939 236.058 9.88451C236.02 9.87609 235.98 9.86688 235.937 9.85709C235.525 9.76264 234.88 9.61523 233.904 9.61523C231.615 9.61523 230.134 10.9167 230.134 12.7119C230.134 14.0134 230.763 15.1803 232.558 16.5716L233.321 17.155C234.712 18.1872 234.936 18.9502 234.936 19.758C234.936 20.6108 234.218 21.5981 232.737 21.5981C231.705 21.5981 230.763 21.1493 230.404 19.9376C230.314 19.6234 230.269 19.3092 230.269 19.0848C230.269 18.9502 230.224 18.8156 230.089 18.8156C229.955 18.8156 229.91 18.9951 229.91 19.2195C229.865 19.4888 229.82 20.4761 229.82 21.3737ZM241.263 14.5083V14.5057C241.263 12.0396 241.263 11.5909 241.218 11.0525C241.174 10.514 241.039 10.1998 240.68 10.1549C240.5 10.1101 240.276 10.1101 240.096 10.1101C239.917 10.1101 239.827 10.0652 239.827 9.93055C239.827 9.84079 239.962 9.7959 240.231 9.7959C240.572 9.7959 241.031 9.80908 241.451 9.82116C241.807 9.83136 242.135 9.84078 242.34 9.84078C242.524 9.84078 242.828 9.83152 243.159 9.82142C243.558 9.80927 243.997 9.7959 244.315 9.7959C244.54 9.7959 244.674 9.84079 244.674 9.93055C244.674 10.0652 244.584 10.1101 244.405 10.1101C244.225 10.1101 244.091 10.1101 243.911 10.1549C243.462 10.2447 243.328 10.514 243.328 11.0974C243.283 11.636 243.283 12.0848 243.283 14.5531V17.4254C243.283 18.9962 243.283 20.2977 243.328 21.0158C243.373 21.4646 243.507 21.7339 244.001 21.8237C244.225 21.8685 244.584 21.8685 244.854 21.8685H244.854C245.033 21.8685 245.123 21.9134 245.123 22.0032C245.123 22.1378 244.988 22.1827 244.809 22.1827C244.154 22.1827 243.516 22.1661 243.016 22.1531C242.693 22.1447 242.427 22.1378 242.251 22.1378C242.099 22.1378 241.828 22.1458 241.514 22.155L241.514 22.155C241.084 22.1677 240.575 22.1827 240.186 22.1827C239.962 22.1827 239.872 22.1378 239.872 22.0032C239.872 21.9134 239.917 21.8685 240.141 21.8685C240.268 21.8685 240.394 21.8543 240.505 21.8418C240.59 21.8322 240.666 21.8237 240.725 21.8237C241.039 21.7788 241.129 21.4646 241.218 21.0158C241.308 20.3426 241.308 19.0411 241.308 17.4703L241.263 14.5083ZM249.972 10.7381L252.396 10.6932H252.53V17.4252C252.53 18.9062 252.53 20.2077 252.441 20.8809C252.351 21.3746 252.261 21.7336 251.947 21.7785C251.888 21.7785 251.812 21.7871 251.727 21.7967C251.616 21.8092 251.49 21.8234 251.364 21.8234C251.139 21.8234 251.094 21.8683 251.094 21.958C251.094 22.0927 251.184 22.1376 251.408 22.1376C251.798 22.1376 252.307 22.1226 252.736 22.1099C253.05 22.1007 253.321 22.0927 253.473 22.0927C253.649 22.0927 253.915 22.0996 254.238 22.108C254.738 22.121 255.377 22.1376 256.031 22.1376C256.211 22.1376 256.345 22.0927 256.345 21.958C256.345 21.8683 256.255 21.8234 256.076 21.8234C255.807 21.8234 255.448 21.8234 255.223 21.7785C254.73 21.6888 254.64 21.3297 254.595 20.8809C254.505 20.1629 254.505 18.8613 254.505 17.3803V10.6932L256.57 10.7381C258.006 10.7381 258.455 11.2318 258.499 11.6357V11.8152C258.499 12.0396 258.544 12.1294 258.679 12.1294C258.769 12.1294 258.814 12.0396 258.814 11.8601C258.814 11.6522 258.826 11.2541 258.837 10.8676C258.848 10.5033 258.859 10.1494 258.859 9.97516C258.859 9.70589 258.859 9.61613 258.724 9.61613C258.688 9.61613 258.633 9.62877 258.553 9.64734C258.331 9.69876 257.911 9.79565 257.153 9.79565H250.69C250.152 9.79565 249.568 9.75078 249.075 9.7059C248.819 9.7059 248.653 9.63374 248.531 9.58092C248.461 9.55042 248.406 9.52637 248.357 9.52637C248.267 9.52637 248.222 9.61613 248.177 9.84053C248.132 9.97517 247.818 11.4562 247.818 11.7255C247.818 11.905 247.818 11.9948 247.953 11.9948C248.043 11.9948 248.087 11.9499 248.132 11.8152C248.136 11.8025 248.141 11.7889 248.145 11.7746L248.155 11.7412L248.155 11.7409C248.196 11.6059 248.252 11.4188 248.402 11.2318C248.626 10.8728 249.03 10.783 249.972 10.7381ZM265.947 17.9191C265.947 17.0969 265.796 16.7266 265.633 16.3252L265.613 16.2756L265.588 16.2137C265.453 15.9444 263.299 12.354 262.716 11.5013C262.312 10.9179 261.908 10.4691 261.594 10.2896C261.369 10.1549 261.1 10.0652 260.92 10.0652C260.786 10.0652 260.696 10.0203 260.696 9.93055C260.696 9.84079 260.831 9.7959 261.01 9.7959C261.146 9.7959 261.451 9.80431 261.796 9.81386C262.248 9.82635 262.769 9.84078 263.075 9.84078C263.223 9.84078 263.426 9.83308 263.663 9.82406C263.999 9.8113 264.404 9.7959 264.825 9.7959C265.004 9.7959 265.049 9.84079 265.049 9.93055C265.049 10.0203 264.915 10.0652 264.69 10.1101C264.556 10.1549 264.466 10.2896 264.466 10.4242C264.466 10.5307 264.522 10.6653 264.59 10.828L264.59 10.8289L264.618 10.8963C264.627 10.918 264.636 10.9402 264.645 10.9628C264.87 11.4564 267.159 15.4059 267.428 15.8547C267.559 15.5601 268.668 13.5709 269.364 12.3239L269.368 12.3171L269.373 12.3083L269.373 12.3071C269.627 11.8523 269.824 11.4987 269.896 11.3667C270.076 11.0076 270.121 10.7384 270.121 10.514C270.121 10.3345 270.076 10.1549 269.762 10.1101C269.749 10.1057 269.735 10.1017 269.721 10.098C269.711 10.0953 269.7 10.0926 269.69 10.0901L269.661 10.0832C269.552 10.0575 269.448 10.0331 269.448 9.93055C269.448 9.79591 269.537 9.7959 269.717 9.7959C269.998 9.7959 270.28 9.80816 270.549 9.81987C270.794 9.83056 271.029 9.84078 271.243 9.84078C271.428 9.84078 271.806 9.8288 272.17 9.81722C272.511 9.80638 272.841 9.7959 272.993 9.7959C273.173 9.7959 273.307 9.84079 273.307 9.93055C273.307 10.0652 273.173 10.1101 272.993 10.1101C272.814 10.1101 272.499 10.1549 272.275 10.2896C271.916 10.4691 271.736 10.6486 271.377 11.0974C270.839 11.7706 268.55 15.5854 268.281 16.3035C268.056 16.8869 268.056 17.3806 268.056 17.9191V19.2655V19.2661C268.056 19.5357 268.056 20.2084 268.101 20.8812C268.146 21.3749 268.281 21.7339 268.774 21.7788C268.999 21.8237 269.358 21.8237 269.582 21.8237C269.762 21.8237 269.852 21.8685 269.852 21.9583C269.852 22.0929 269.717 22.1378 269.492 22.1378C268.87 22.1378 268.248 22.1215 267.754 22.1086C267.428 22.1 267.158 22.0929 266.979 22.0929C266.796 22.0929 266.483 22.1022 266.141 22.1123C265.73 22.1244 265.278 22.1378 264.96 22.1378C264.735 22.1378 264.601 22.0929 264.601 21.9583C264.601 21.8685 264.69 21.8237 264.87 21.8237C264.988 21.8237 265.094 21.8112 265.194 21.7993C265.284 21.7888 265.369 21.7788 265.453 21.7788C265.767 21.7339 265.947 21.3749 265.947 20.8812C265.992 20.208 265.992 19.4899 265.992 19.2655L265.947 17.9191ZM39.8441 32.4607V34.7495L39.889 36.6793C39.889 37.7116 39.889 38.5643 39.8441 39.0131C39.7992 39.3273 39.7543 39.5068 39.5299 39.5517C39.3953 39.5965 39.3056 39.5965 39.1261 39.5965H39.126C38.9914 39.5965 38.9465 39.6414 38.9465 39.6863C38.9465 39.7312 39.0363 39.7761 39.1709 39.7761C39.4022 39.7761 39.7366 39.7613 40.0222 39.7488L40.0224 39.7488L40.0226 39.7487H40.0226H40.0227H40.0229L40.0231 39.7487C40.2359 39.7394 40.4215 39.7312 40.5173 39.7312C40.6195 39.7312 40.7801 39.7376 40.9792 39.7457L40.9795 39.7457L40.9797 39.7457L40.9798 39.7457H40.98C41.305 39.7588 41.7328 39.7761 42.1778 39.7761C42.3125 39.7761 42.4022 39.7761 42.4022 39.6863C42.4022 39.6414 42.3573 39.5965 42.2227 39.5965C42.1554 39.5965 42.0544 39.5853 41.9534 39.5741C41.8525 39.5629 41.7515 39.5517 41.6842 39.5517C41.3251 39.5068 41.2802 39.2824 41.2354 39.0131C41.1905 38.5643 41.1905 37.7116 41.1905 36.6793V34.7944V32.5055C41.2354 32.1016 41.3251 31.9221 41.5944 31.8772C41.729 31.8323 41.8188 31.8323 41.9086 31.8323C42.0432 31.8323 42.0881 31.8323 42.0881 31.7426C42.0881 31.6528 41.9983 31.6528 41.8637 31.6528H41.8637C41.6413 31.6528 41.3509 31.6664 41.0899 31.6787C40.8768 31.6886 40.6832 31.6977 40.5622 31.6977C40.415 31.6977 40.1889 31.6879 39.9487 31.6774L39.9487 31.6774H39.9486C39.6762 31.6655 39.3855 31.6528 39.1709 31.6528C38.9914 31.6528 38.9016 31.6977 38.9016 31.7426C38.9016 31.8323 38.9914 31.8323 39.0811 31.8323C39.2158 31.8323 39.3504 31.8323 39.485 31.8772C39.7094 31.9221 39.8441 32.1016 39.8441 32.4607ZM45.8105 38.2939C45.8105 39.1466 45.99 39.4159 46.1695 39.5057C46.349 39.5506 46.5734 39.5954 46.7081 39.5954C46.8427 39.5954 46.8876 39.5954 46.8876 39.6852C46.8876 39.775 46.7978 39.775 46.6632 39.775C46.2027 39.775 45.8714 39.7565 45.6338 39.7433H45.6338L45.6336 39.7433C45.5008 39.7359 45.3973 39.7301 45.3168 39.7301C45.2915 39.7301 45.2342 39.7336 45.1518 39.7388H45.1518H45.1517C44.9416 39.7518 44.5689 39.775 44.1499 39.775C44.0153 39.775 43.9255 39.775 43.9255 39.6852C43.9255 39.6403 43.9704 39.5954 44.1051 39.5954H44.1052C44.2398 39.5954 44.4193 39.5954 44.5987 39.5506C44.868 39.4608 44.9129 39.1466 44.9129 38.2042L45.0027 31.8761C45.0027 31.6517 45.0475 31.5171 45.1373 31.5171C45.2428 31.5171 45.3207 31.5998 45.4359 31.7219C45.4677 31.7557 45.5024 31.7924 45.5412 31.8313C45.5717 31.8617 45.6779 31.9748 45.8423 32.1499L45.8427 32.1504C46.4052 32.7493 47.6472 34.0719 48.8623 35.287C49.1324 35.5571 49.504 35.9478 49.8746 36.3373L49.8747 36.3375C50.4894 36.9836 51.1009 37.6265 51.2409 37.7105H51.2858L51.196 32.9084C51.196 32.2352 51.1063 32.0556 50.837 31.9659C50.6575 31.921 50.4332 31.921 50.2537 31.921H50.2536C50.1189 31.921 50.0741 31.8761 50.0741 31.8313C50.0741 31.7415 50.2087 31.7415 50.3433 31.7415C50.6706 31.7415 50.9979 31.7581 51.2547 31.7711C51.4204 31.7795 51.5568 31.7864 51.6448 31.7864C51.6908 31.7864 51.7682 31.7811 51.8698 31.7742L51.8703 31.7742L51.8703 31.7742L51.8707 31.7742L51.8712 31.7742L51.8713 31.7741C52.0672 31.7609 52.3528 31.7415 52.6771 31.7415C52.8117 31.7415 52.9015 31.7415 52.9015 31.8313C52.9015 31.8761 52.8566 31.921 52.722 31.921H52.7219C52.6321 31.921 52.5424 31.921 52.4078 31.9659C52.0936 32.0556 52.0039 32.28 52.0039 32.8635L51.8692 39.6403C51.8692 39.8647 51.8244 39.9545 51.7346 39.9545C51.6438 39.9545 51.5734 39.8933 51.496 39.8259L51.4959 39.8258C51.4585 39.7933 51.4194 39.7593 51.3756 39.7301C50.929 39.3132 50.1663 38.5409 49.389 37.7536L49.3885 37.7532L49.3881 37.7527C48.994 37.3536 48.5962 36.9508 48.234 36.5885C47.3959 35.7504 46.5346 34.8196 46.0493 34.2952C45.8589 34.0895 45.7264 33.9463 45.6758 33.8957H45.631L45.8105 38.2939ZM59.5023 32.2805L61.118 32.2356L61.0731 36.6338C61.0731 37.6212 61.0731 38.4739 61.0282 38.9227C60.9833 39.2368 60.9385 39.4612 60.7141 39.5061C60.5794 39.551 60.4897 39.551 60.3101 39.551C60.1755 39.551 60.1306 39.5959 60.1306 39.6407C60.1306 39.6856 60.2204 39.7305 60.355 39.7305C60.5864 39.7305 60.9208 39.7158 61.2064 39.7032H61.2065L61.2067 39.7032H61.2068H61.2069H61.2069H61.207H61.2071L61.2073 39.7032C61.42 39.6938 61.6057 39.6856 61.7014 39.6856C61.8037 39.6856 61.9642 39.6921 62.1633 39.7001L62.1636 39.7001L62.1638 39.7002L62.164 39.7002H62.1641C62.4892 39.7133 62.917 39.7305 63.362 39.7305C63.4966 39.7305 63.5864 39.7305 63.5864 39.6407C63.5864 39.5959 63.5415 39.551 63.4068 39.551C63.3395 39.551 63.2385 39.5398 63.1376 39.5286C63.0366 39.5173 62.9356 39.5061 62.8683 39.5061C62.5541 39.4612 62.5092 39.2368 62.4644 38.9227C62.4195 38.4739 62.4195 37.6213 62.4195 36.6341V36.6338V32.2356L63.7659 32.2805C64.7084 32.2805 65.0225 32.5946 65.0225 32.8639V32.9986L65.0357 33.0522C65.0684 33.1873 65.0771 33.223 65.1571 33.223C65.202 33.223 65.2469 33.1332 65.2469 33.0434C65.2469 32.9027 65.2592 32.627 65.2709 32.3638C65.2816 32.1236 65.2918 31.8939 65.2918 31.7868C65.2918 31.6073 65.2918 31.5624 65.202 31.5624C65.1572 31.5624 65.1123 31.5624 64.9327 31.6073C64.8816 31.6073 64.8175 31.6138 64.738 31.6218C64.6082 31.6349 64.4374 31.6522 64.2147 31.6522H59.9511C59.5921 31.6522 59.1881 31.6522 58.874 31.6073C58.7193 31.5815 58.6238 31.5409 58.5536 31.511C58.5016 31.4889 58.4634 31.4727 58.4252 31.4727C58.3551 31.4727 58.3398 31.5274 58.315 31.6154C58.3081 31.6402 58.3004 31.6675 58.2906 31.6971C58.2906 31.712 58.2656 31.8317 58.2324 31.9913L58.2323 31.9915L58.2323 31.9916L58.2322 31.9921C58.1657 32.3112 58.0662 32.7892 58.0662 32.9088C58.0662 33.0434 58.0662 33.0883 58.1559 33.0883C58.2457 33.0883 58.2906 33.0434 58.2906 32.9537C58.2906 32.8982 58.3248 32.8427 58.3722 32.7661C58.4015 32.7187 58.4358 32.6632 58.4701 32.5946C58.6047 32.3703 58.874 32.2805 59.5023 32.2805ZM73.3704 35.0627C73.4153 35.0627 73.4153 35.0627 73.4153 34.9729V34.7485V32.4596C73.4153 32.1006 73.3255 31.9211 72.9665 31.8313C72.9261 31.8313 72.8676 31.8223 72.8032 31.8123C72.7244 31.8001 72.6367 31.7864 72.5626 31.7864C72.4279 31.7864 72.383 31.7865 72.383 31.6967C72.383 31.6069 72.4728 31.6069 72.6074 31.6069C72.9547 31.6069 73.3338 31.6228 73.6406 31.6357L73.6408 31.6357L73.6409 31.6357L73.641 31.6357C73.8494 31.6445 74.0244 31.6518 74.1333 31.6518C74.2544 31.6518 74.457 31.6427 74.6801 31.6328C74.9534 31.6205 75.2574 31.6069 75.4797 31.6069C75.6144 31.6069 75.7041 31.6069 75.7041 31.6967C75.7041 31.7865 75.6592 31.7864 75.5246 31.7864C75.4349 31.7864 75.3451 31.7865 75.2105 31.8313C74.9412 31.8762 74.8514 32.0557 74.8065 32.4596V34.7485V36.6335C74.8065 37.6208 74.8065 38.4735 74.8514 38.9223C74.8963 39.2365 74.9412 39.4609 75.2553 39.5058C75.3226 39.5058 75.4236 39.517 75.5246 39.5282C75.6256 39.5394 75.7266 39.5506 75.7939 39.5506C75.9285 39.5506 75.9734 39.5955 75.9734 39.6404C75.9734 39.7302 75.8837 39.7302 75.749 39.7302C75.3042 39.7302 74.8766 39.7129 74.5516 39.6998L74.5513 39.6998L74.5509 39.6998L74.5507 39.6998L74.5504 39.6998C74.3513 39.6917 74.1907 39.6853 74.0885 39.6853C73.9926 39.6853 73.8068 39.6935 73.5938 39.7028C73.3081 39.7154 72.9735 39.7302 72.7421 39.7302C72.6074 39.7302 72.5177 39.6853 72.5177 39.6404C72.5177 39.5955 72.5626 39.5506 72.6972 39.5506C72.8767 39.5506 72.9665 39.5506 73.1011 39.5058C73.3255 39.4609 73.3704 39.2365 73.4153 38.9223C73.4601 38.4735 73.4601 37.6208 73.4601 36.6335V35.691C73.4601 35.6461 73.4153 35.6461 73.4153 35.6461H69.3312C69.2863 35.6461 69.2863 35.6461 69.2863 35.691V36.6335V36.634C69.2863 37.6211 69.2863 38.4736 69.3312 38.9223C69.3761 39.2365 69.421 39.4609 69.7351 39.5058C69.8025 39.5058 69.9034 39.517 70.0044 39.5282C70.1054 39.5394 70.2064 39.5506 70.2737 39.5506C70.4083 39.5506 70.4532 39.5955 70.4532 39.6404C70.4532 39.7302 70.3634 39.7302 70.2288 39.7302C69.784 39.7302 69.3564 39.7129 69.0314 39.6998L69.0311 39.6998L69.0307 39.6998L69.0304 39.6998L69.0302 39.6998C68.8311 39.6917 68.6705 39.6853 68.5683 39.6853C68.4724 39.6853 68.2866 39.6935 68.0736 39.7028C67.7878 39.7154 67.4533 39.7302 67.2219 39.7302C67.0872 39.7302 66.9975 39.6853 66.9975 39.6404C66.9975 39.5955 67.0424 39.5506 67.177 39.5506C67.3565 39.5506 67.4463 39.5506 67.5809 39.5058C67.8053 39.4609 67.8502 39.2365 67.8951 38.9223C67.9399 38.4735 67.9399 37.6208 67.9399 36.6335V34.7485V32.4596C67.9399 32.1006 67.8502 31.9211 67.4912 31.8313C67.4508 31.8313 67.3923 31.8223 67.3279 31.8123C67.2491 31.8001 67.1614 31.7864 67.0872 31.7864H67.0872C66.9526 31.7864 66.9077 31.7864 66.9077 31.6967C66.9077 31.6069 66.9975 31.6069 67.1321 31.6069C67.4794 31.6069 67.8584 31.6228 68.1652 31.6357L68.1653 31.6357L68.1654 31.6357L68.1656 31.6357C68.3741 31.6445 68.5491 31.6518 68.658 31.6518C68.7791 31.6518 68.9817 31.6427 69.2048 31.6328C69.4781 31.6205 69.7821 31.6069 70.0044 31.6069C70.139 31.6069 70.2288 31.6069 70.2288 31.6967C70.2288 31.7865 70.1839 31.7864 70.0493 31.7864C69.9595 31.7864 69.8698 31.7865 69.7351 31.8313C69.4659 31.8762 69.3761 32.0557 69.3312 32.4596V34.7485V34.9729C69.3312 35.0178 69.3761 35.0627 69.3761 35.0627H73.3704ZM78.7996 32.4601V34.749L78.9342 36.6339C78.9342 37.6213 78.9342 38.474 78.8893 38.9228C78.8444 39.2369 78.7996 39.4613 78.5752 39.5062C78.4405 39.5511 78.3508 39.5511 78.1712 39.5511C78.0366 39.5511 77.9917 39.596 77.9917 39.6408C77.9917 39.6857 78.0815 39.7306 78.2161 39.7306C78.4475 39.7306 78.7818 39.7159 79.0675 39.7033L79.0677 39.7033L79.0678 39.7033C79.2808 39.6939 79.4667 39.6857 79.5625 39.6857C79.8038 39.6857 80.0583 39.6923 80.3717 39.7005H80.3718H80.372H80.3721H80.3722H80.3723H80.3724H80.3725H80.3726H80.3726H80.3727H80.3728H80.3729H80.373H80.3731H80.3732H80.3733H80.3734H80.3735C80.8761 39.7136 81.5304 39.7306 82.5246 39.7306C82.9285 39.7306 83.0182 39.7306 83.108 39.4613C83.1529 39.2369 83.2427 38.474 83.2427 38.2496C83.2427 38.1598 83.2427 38.0701 83.1529 38.0701C83.0631 38.0701 83.0183 38.1149 83.0183 38.2496C82.9285 38.6984 82.7939 38.9228 82.5246 39.0574C82.2553 39.1921 81.8065 39.192 81.5372 39.192C80.4152 39.192 80.2357 39.0125 80.2357 38.2945V36.6339V35.7812C80.2357 35.7363 80.2357 35.6914 80.2806 35.6914C80.4214 35.6914 80.7707 35.7037 81.104 35.7154L81.105 35.7154C81.409 35.7261 81.6995 35.7363 81.8065 35.7363C82.1655 35.7812 82.3451 35.9158 82.3899 36.1402C82.4348 36.3198 82.4348 36.4544 82.4348 36.5441C82.4348 36.589 82.4348 36.6339 82.5246 36.6339C82.6143 36.6339 82.6143 36.4993 82.6143 36.4095C82.6143 36.3747 82.6211 36.2928 82.6293 36.1924C82.6424 36.0337 82.6592 35.8289 82.6592 35.6914C82.6908 35.3127 82.7223 35.1115 82.7383 35.0099L82.7383 35.0098C82.745 34.9669 82.749 34.9418 82.749 34.9285C82.749 34.8836 82.7041 34.8387 82.6592 34.8387C82.6143 34.8387 82.5695 34.8836 82.4797 34.9734C82.3899 35.108 82.2553 35.1529 81.986 35.1529H80.2806C80.1908 35.1529 80.1908 35.108 80.1908 35.0182V32.3255C80.1908 32.2806 80.2357 32.2357 80.2806 32.2357C80.3985 32.2357 80.7641 32.2481 81.1107 32.2598L81.1109 32.2598L81.1112 32.2599L81.1115 32.2599L81.1119 32.2599L81.1123 32.2599H81.1125L81.113 32.2599L81.1142 32.26L81.1156 32.26L81.1159 32.26C81.4271 32.2706 81.7218 32.2806 81.8065 32.2806C82.3451 32.3703 82.4348 32.505 82.5246 32.6845C82.5695 32.8191 82.5695 32.9986 82.5695 33.0884C82.5695 33.1782 82.5695 33.2231 82.6592 33.2231C82.7041 33.2231 82.749 33.1333 82.749 33.0884C82.749 33.0143 82.7626 32.8314 82.7748 32.6669C82.7848 32.5326 82.7939 32.4107 82.7939 32.3703C82.8212 32.0694 82.8486 31.9019 82.8658 31.7966C82.8768 31.7292 82.8836 31.6873 82.8836 31.6523C82.8836 31.6074 82.8836 31.5625 82.8387 31.5625C82.8163 31.5625 82.7826 31.5737 82.749 31.5849C82.7153 31.5962 82.6817 31.6074 82.6592 31.6074C82.6244 31.6074 82.5829 31.6141 82.5321 31.6224C82.4517 31.6354 82.3479 31.6523 82.2104 31.6523H79.5176C79.4087 31.6523 79.2337 31.6449 79.0252 31.6362C78.7184 31.6233 78.3391 31.6074 77.9917 31.6074C77.8571 31.6074 77.7673 31.6074 77.7673 31.6971C77.7673 31.7869 77.8122 31.7869 77.9469 31.7869C78.021 31.7869 78.1087 31.8005 78.1875 31.8127C78.2519 31.8227 78.3104 31.8318 78.3508 31.8318C78.7098 31.9215 78.7996 32.1011 78.7996 32.4601ZM90.0681 38.7432C89.0358 37.8008 88.7217 36.6339 88.7217 35.6017C88.7217 34.8836 88.9461 33.627 89.9783 32.6845C90.7413 31.9664 91.7735 31.5625 93.3443 31.5625C93.9458 31.5625 94.3323 31.5983 94.76 31.638L94.9151 31.6523C95.1553 31.679 95.3797 31.7215 95.5882 31.7611L95.5883 31.7611C95.7303 31.7881 95.8649 31.8136 95.9922 31.8318C96.1268 31.8318 96.1717 31.8767 96.1717 31.9664C96.1717 31.9963 96.1667 32.0312 96.1601 32.0776L96.1601 32.0778C96.1468 32.1709 96.1268 32.3105 96.1268 32.5499V32.55C96.1268 32.9091 96.1268 33.4924 96.0819 33.7167C96.0819 33.8963 96.0371 33.986 95.9473 33.986C95.8576 33.986 95.8576 33.8962 95.8576 33.7616C95.8576 33.4474 95.7229 33.0435 95.4536 32.7743C95.0946 32.4152 94.2419 32.1011 93.2994 32.1011C92.3569 32.1011 91.7735 32.3255 91.2798 32.7743C90.5169 33.4923 90.2925 34.5246 90.2925 35.5568C90.2925 38.1149 92.2223 39.3716 93.6584 39.3716C94.6009 39.3716 95.1844 39.2818 95.6332 38.7881C95.8127 38.5637 95.9473 38.2945 95.9922 38.0701L96.0054 38.0164C96.0381 37.8813 96.0468 37.8457 96.1268 37.8457C96.2166 37.8457 96.2166 37.9354 96.2166 38.0252C96.2166 38.1598 96.082 39.1023 95.9922 39.4613C95.9473 39.6408 95.9024 39.6857 95.7229 39.7755C95.2741 39.955 94.4663 39.9999 93.7931 39.9999C92.2672 39.9101 91.0554 39.596 90.0681 38.7432ZM99.0426 32.4602V34.749L99.0874 36.6789C99.0874 37.7111 99.0874 38.5638 99.0426 39.0126C98.9977 39.3268 98.9528 39.5063 98.7284 39.5512C98.5938 39.596 98.5041 39.596 98.3246 39.596H98.3245C98.1899 39.596 98.145 39.6409 98.145 39.6858C98.145 39.7307 98.2347 39.7756 98.3694 39.7756C98.6008 39.7756 98.9353 39.7608 99.2211 39.7482C99.4341 39.7389 99.6199 39.7307 99.7158 39.7307C99.818 39.7307 99.9786 39.7372 100.178 39.7452L100.178 39.7452L100.178 39.7452L100.179 39.7452L100.179 39.7452C100.504 39.7583 100.932 39.7756 101.376 39.7756C101.511 39.7756 101.601 39.7756 101.601 39.6858C101.601 39.6409 101.556 39.596 101.421 39.596C101.354 39.596 101.253 39.5848 101.152 39.5736C101.051 39.5624 100.95 39.5512 100.883 39.5512C100.524 39.5063 100.479 39.2819 100.434 39.0126C100.389 38.5638 100.389 37.7111 100.389 36.6789V34.7939V32.5051C100.434 32.1011 100.524 31.9216 100.793 31.8767C100.928 31.8319 101.017 31.8319 101.107 31.8319C101.242 31.8319 101.287 31.8319 101.287 31.7421C101.287 31.6523 101.197 31.6523 101.062 31.6523C100.84 31.6523 100.549 31.6659 100.288 31.6782C100.075 31.6882 99.8817 31.6972 99.7606 31.6972C99.6134 31.6972 99.3873 31.6874 99.1471 31.6769C98.8747 31.665 98.584 31.6523 98.3694 31.6523C98.1898 31.6523 98.1001 31.6972 98.1001 31.7421C98.1001 31.8319 98.1899 31.8319 98.2796 31.8319C98.4143 31.8319 98.5489 31.8319 98.6835 31.8767C98.9079 31.9216 99.0426 32.1011 99.0426 32.4602ZM105.819 32.2356L104.203 32.2805C103.575 32.2805 103.306 32.3703 103.171 32.5946C103.137 32.6632 103.103 32.7187 103.073 32.7661C103.026 32.8427 102.992 32.8982 102.992 32.9537C102.992 33.0434 102.947 33.0883 102.857 33.0883C102.767 33.0883 102.767 33.0434 102.767 32.9088C102.767 32.7891 102.867 32.3104 102.934 31.9913L102.934 31.991C102.967 31.8316 102.992 31.712 102.992 31.6971C102.996 31.6844 103 31.6721 103.003 31.6603L103.01 31.6369L103.016 31.6154C103.041 31.5274 103.056 31.4727 103.126 31.4727C103.165 31.4727 103.203 31.4889 103.255 31.511C103.325 31.5409 103.42 31.5815 103.575 31.6073C103.889 31.6522 104.293 31.6522 104.652 31.6522H108.916C109.139 31.6522 109.309 31.6349 109.439 31.6218C109.519 31.6138 109.583 31.6073 109.634 31.6073C109.813 31.5624 109.858 31.5624 109.903 31.5624C109.993 31.5624 109.993 31.6073 109.993 31.7868C109.993 31.8937 109.983 32.1229 109.972 32.3627L109.972 32.3638C109.96 32.627 109.948 32.9027 109.948 33.0434C109.948 33.1332 109.903 33.223 109.858 33.223C109.778 33.223 109.77 33.1873 109.737 33.0522L109.724 32.9986V32.8639C109.724 32.5946 109.41 32.2805 108.467 32.2805L107.121 32.2356V36.6338C107.121 37.6212 107.121 38.4739 107.166 38.9227C107.21 39.2368 107.255 39.4612 107.569 39.5061C107.637 39.5061 107.738 39.5173 107.839 39.5286C107.94 39.5398 108.041 39.551 108.108 39.551C108.243 39.551 108.288 39.5959 108.288 39.6407C108.288 39.7305 108.198 39.7305 108.063 39.7305C107.618 39.7305 107.191 39.7133 106.866 39.7002L106.865 39.7002L106.865 39.7002L106.865 39.7001L106.865 39.7001C106.665 39.6921 106.505 39.6856 106.403 39.6856C106.307 39.6856 106.121 39.6938 105.908 39.7032C105.622 39.7158 105.288 39.7305 105.056 39.7305C104.922 39.7305 104.832 39.6856 104.832 39.6407C104.832 39.5959 104.877 39.551 105.011 39.551C105.191 39.551 105.281 39.551 105.415 39.5061C105.64 39.4612 105.685 39.2368 105.729 38.9227C105.774 38.4739 105.774 37.6215 105.774 36.6343V36.6338L105.819 32.2356ZM113.579 35.8716C113.714 36.1857 113.804 36.4101 113.804 36.9935L113.849 37.936C113.849 38.1155 113.849 38.5643 113.804 39.0131C113.804 39.3273 113.714 39.5517 113.49 39.5966C113.4 39.6414 113.265 39.6414 113.131 39.6414C112.996 39.6414 112.951 39.6863 112.951 39.7312C112.951 39.821 113.041 39.821 113.176 39.821C113.398 39.821 113.702 39.8074 113.975 39.7951C114.198 39.7852 114.401 39.7761 114.522 39.7761C114.649 39.7761 114.836 39.7835 115.058 39.7923H115.058H115.058C115.383 39.8051 115.783 39.821 116.183 39.821C116.317 39.821 116.407 39.821 116.407 39.7312C116.407 39.6863 116.362 39.6414 116.227 39.6414C116.16 39.6414 116.059 39.6302 115.958 39.619L115.958 39.619L115.958 39.619C115.857 39.6078 115.756 39.5966 115.689 39.5966C115.375 39.5517 115.24 39.3273 115.24 39.0131C115.195 38.5643 115.195 38.1155 115.195 37.936V37.0384C115.195 36.6794 115.195 36.3652 115.375 35.9613C115.599 35.5125 117.08 32.9993 117.439 32.5505C117.664 32.2363 117.798 32.1017 118.023 32.0119C118.202 31.9221 118.426 31.8773 118.516 31.8773C118.651 31.8773 118.741 31.8773 118.741 31.7875C118.741 31.6977 118.696 31.6978 118.561 31.6978C118.449 31.6978 118.213 31.709 117.978 31.7202C117.742 31.7314 117.506 31.7426 117.394 31.7426C117.269 31.7426 117.125 31.733 116.97 31.7226L116.97 31.7226C116.792 31.7106 116.599 31.6978 116.407 31.6978C116.272 31.6978 116.227 31.6977 116.227 31.7875C116.227 31.8324 116.317 31.8773 116.407 31.8773C116.586 31.9221 116.631 32.0568 116.631 32.1465C116.631 32.2812 116.586 32.4607 116.497 32.6851C116.429 32.8195 116.199 33.2307 115.932 33.7067C115.485 34.5021 114.937 35.4787 114.881 35.6472C114.701 35.3779 113.176 32.7749 113.041 32.4607C112.951 32.3261 112.906 32.1914 112.906 32.1017C112.906 32.0119 112.951 31.9222 113.041 31.9222C113.176 31.8773 113.265 31.8324 113.265 31.7875C113.265 31.7426 113.176 31.6978 113.086 31.6978C112.791 31.6978 112.512 31.7138 112.288 31.7266L112.287 31.7267L112.287 31.7267C112.136 31.7353 112.009 31.7426 111.919 31.7426C111.709 31.7426 111.344 31.7272 111.042 31.7145C110.829 31.7055 110.647 31.6978 110.573 31.6978C110.438 31.6978 110.348 31.7426 110.348 31.7875C110.348 31.8773 110.438 31.8773 110.528 31.8773C110.662 31.8773 110.842 31.9221 110.976 32.0119C111.156 32.1017 111.425 32.3709 111.695 32.7749C112.054 33.3583 113.49 35.692 113.579 35.8716ZM122.962 35.6913C122.962 33.8513 124.173 31.4727 127.405 31.4727C130.053 31.4727 131.713 33.0434 131.713 35.4669C131.713 37.9353 130.008 39.8651 127.27 39.8651C124.173 39.91 122.962 37.6212 122.962 35.6913ZM130.187 35.9157C130.187 33.5371 128.796 32.0112 127.046 32.0112C125.834 32.0112 124.398 32.6844 124.398 35.3772C124.398 37.6212 125.61 39.3715 127.674 39.3715C128.482 39.3715 130.187 39.0124 130.187 35.9157ZM135.886 38.9218C135.842 38.473 135.842 37.6652 135.842 36.6329L136.021 35.7802C136.021 35.6905 136.066 35.6905 136.111 35.6905C136.29 35.6905 137.412 35.6905 137.682 35.7353C137.996 35.7802 138.175 36.0046 138.22 36.1393C138.265 36.229 138.265 36.3636 138.265 36.4534C138.265 36.4983 138.31 36.5881 138.355 36.5881C138.445 36.5881 138.445 36.4534 138.445 36.3637C138.445 36.3542 138.447 36.325 138.45 36.2826L138.455 36.2155L138.455 36.2147C138.468 36.0394 138.489 35.7557 138.489 35.6007C138.512 35.4212 138.534 35.2642 138.551 35.1464C138.568 35.0285 138.579 34.9499 138.579 34.9275C138.579 34.8826 138.579 34.8377 138.534 34.8377C138.489 34.8377 138.445 34.8826 138.4 34.9275C138.31 35.0621 138.175 35.107 137.951 35.107H137.457H136.066C135.976 35.107 135.976 35.0621 135.976 35.0173V32.3245C135.976 32.2347 136.021 32.1898 136.066 32.1898L137.727 32.2347C138.13 32.2347 138.355 32.4142 138.445 32.5489C138.489 32.6835 138.489 32.863 138.489 32.9528C138.489 33.0874 138.489 33.1323 138.579 33.1323C138.624 33.1323 138.669 33.0874 138.669 32.9977C138.669 32.9236 138.683 32.6998 138.695 32.4987C138.705 32.3345 138.714 32.1853 138.714 32.145C138.734 32.0236 138.754 31.9295 138.77 31.8546L138.771 31.8543L138.771 31.8542L138.771 31.8533C138.79 31.7628 138.804 31.7003 138.804 31.6513C138.804 31.6064 138.759 31.5615 138.714 31.5615C138.691 31.5615 138.658 31.5727 138.624 31.584C138.59 31.5952 138.557 31.6064 138.534 31.6064C138.4 31.6513 138.31 31.6513 138.086 31.6513H135.258C135.122 31.6513 134.919 31.6429 134.688 31.6333C134.386 31.6208 134.038 31.6064 133.732 31.6064C133.598 31.6064 133.508 31.6064 133.508 31.6962C133.508 31.7859 133.598 31.7859 133.687 31.7859C133.761 31.7859 133.849 31.7995 133.928 31.8118C133.992 31.8217 134.051 31.8308 134.091 31.8308C134.45 31.9206 134.54 32.1001 134.54 32.4591V34.748V36.6329C134.54 37.6652 134.54 38.473 134.495 38.9218C134.45 39.2359 134.405 39.4604 134.181 39.5052C134.046 39.5501 133.957 39.5501 133.777 39.5501C133.642 39.5501 133.598 39.595 133.598 39.6399C133.598 39.7296 133.687 39.7296 133.822 39.7296C134.044 39.7296 134.348 39.716 134.621 39.7038L134.621 39.7038L134.622 39.7038C134.845 39.6938 135.047 39.6847 135.168 39.6847C135.273 39.6847 135.437 39.6915 135.639 39.6997L135.64 39.6997C135.959 39.7128 136.372 39.7296 136.784 39.7296C136.919 39.7296 137.008 39.7296 137.008 39.6399C137.008 39.595 136.964 39.5501 136.829 39.5501C136.762 39.5501 136.661 39.5389 136.56 39.5277C136.459 39.5165 136.358 39.5052 136.29 39.5052C135.976 39.4604 135.931 39.2359 135.886 38.9218ZM146.076 38.2939C146.076 39.1466 146.256 39.4159 146.435 39.5057C146.615 39.5506 146.839 39.5954 146.974 39.5954C147.109 39.5954 147.153 39.5954 147.153 39.6852C147.153 39.775 147.064 39.775 146.929 39.775C146.468 39.775 146.137 39.7565 145.9 39.7433C145.767 39.7359 145.663 39.7301 145.583 39.7301C145.557 39.7301 145.5 39.7336 145.418 39.7388C145.208 39.7518 144.835 39.775 144.416 39.775C144.281 39.775 144.191 39.775 144.191 39.6852C144.191 39.6403 144.236 39.5954 144.371 39.5954C144.506 39.5954 144.685 39.5954 144.865 39.5506C145.134 39.4608 145.179 39.1466 145.179 38.2042L145.269 31.8761C145.269 31.6517 145.313 31.5171 145.403 31.5171C145.509 31.5171 145.587 31.5998 145.702 31.7219L145.729 31.7504C145.743 31.7655 145.758 31.7811 145.774 31.7972C145.784 31.8084 145.796 31.8197 145.807 31.8313C145.838 31.8617 145.944 31.975 146.108 32.1502C146.671 32.7491 147.913 34.0718 149.128 35.287C149.398 35.557 149.77 35.9475 150.14 36.337L150.141 36.3374C150.755 36.9835 151.367 37.6265 151.507 37.7105H151.552L151.462 32.9084C151.462 32.2352 151.372 32.0556 151.103 31.9659C150.923 31.921 150.699 31.921 150.52 31.921H150.519C150.385 31.921 150.34 31.8761 150.34 31.8313C150.34 31.7415 150.475 31.7415 150.609 31.7415C150.936 31.7415 151.264 31.7581 151.521 31.7711C151.686 31.7795 151.823 31.7864 151.911 31.7864C151.957 31.7864 152.035 31.7811 152.137 31.7742L152.137 31.7741C152.333 31.7609 152.619 31.7415 152.943 31.7415C153.078 31.7415 153.212 31.7415 153.212 31.8313C153.212 31.8761 153.167 31.921 153.033 31.921C152.943 31.921 152.853 31.921 152.719 31.9659C152.404 32.0556 152.315 32.28 152.315 32.8635L152.18 39.6403C152.18 39.8647 152.135 39.9545 152.045 39.9545C151.955 39.9545 151.884 39.8933 151.807 39.8259C151.769 39.7933 151.73 39.7593 151.686 39.7301C151.24 39.3132 150.477 38.5406 149.699 37.7533C149.305 37.354 148.907 36.9509 148.545 36.5885C147.707 35.7504 146.845 34.8196 146.36 34.2952C146.17 34.0895 146.037 33.9463 145.987 33.8957H145.942L146.076 38.2939ZM156.174 32.4601V34.749L156.309 36.6339C156.309 37.6213 156.309 38.474 156.264 38.9228C156.219 39.2369 156.174 39.4613 155.95 39.5062C155.815 39.5511 155.725 39.5511 155.546 39.5511C155.411 39.5511 155.366 39.596 155.366 39.6408C155.366 39.6857 155.456 39.7306 155.591 39.7306C155.822 39.7306 156.157 39.7159 156.442 39.7033C156.655 39.6939 156.841 39.6857 156.937 39.6857C157.178 39.6857 157.433 39.6923 157.746 39.7005H157.747C158.249 39.7136 158.904 39.7306 159.899 39.7306C160.303 39.7306 160.393 39.7306 160.483 39.4613C160.527 39.2369 160.617 38.474 160.617 38.2496C160.617 38.1598 160.617 38.0701 160.527 38.0701C160.438 38.0701 160.393 38.1149 160.393 38.2496C160.303 38.6984 160.168 38.9228 159.899 39.0574C159.63 39.1921 159.181 39.192 158.912 39.192C157.79 39.192 157.61 39.0125 157.61 38.2945V36.6339V35.7812C157.61 35.7363 157.61 35.6914 157.655 35.6914C157.796 35.6914 158.145 35.7037 158.478 35.7154L158.478 35.7154L158.479 35.7154C158.783 35.7261 159.074 35.7363 159.181 35.7363C159.54 35.7812 159.72 35.9158 159.764 36.1402C159.809 36.3198 159.809 36.4544 159.809 36.5441C159.809 36.589 159.809 36.6339 159.899 36.6339C159.989 36.6339 159.989 36.4993 159.989 36.4095C159.989 36.3747 159.996 36.2928 160.004 36.1924C160.017 36.0337 160.034 35.8289 160.034 35.6914C160.065 35.3126 160.097 35.1114 160.113 35.0098C160.12 34.9669 160.123 34.9418 160.123 34.9285C160.123 34.8836 160.079 34.8387 160.034 34.8387C159.989 34.8387 159.944 34.8836 159.854 34.9734C159.764 35.108 159.63 35.1529 159.361 35.1529H157.655C157.565 35.1529 157.565 35.108 157.565 35.0182V32.3255C157.565 32.2806 157.61 32.2357 157.655 32.2357C157.773 32.2357 158.141 32.2482 158.489 32.26L158.49 32.26C158.801 32.2706 159.096 32.2806 159.181 32.2806C159.72 32.3703 159.809 32.505 159.899 32.6845C159.944 32.8191 159.944 32.9986 159.944 33.0884C159.944 33.1782 159.944 33.2231 160.034 33.2231C160.079 33.2231 160.123 33.1333 160.123 33.0884C160.123 33.0143 160.137 32.8314 160.149 32.6669C160.159 32.5326 160.168 32.4107 160.168 32.3703C160.196 32.0694 160.223 31.9019 160.24 31.7966C160.251 31.7292 160.258 31.6873 160.258 31.6523C160.258 31.6074 160.258 31.5625 160.213 31.5625C160.191 31.5625 160.157 31.5737 160.124 31.5849C160.09 31.5962 160.056 31.6074 160.034 31.6074C159.999 31.6074 159.957 31.6141 159.907 31.6224C159.826 31.6354 159.722 31.6523 159.585 31.6523H156.892C156.783 31.6523 156.608 31.6449 156.4 31.6362C156.093 31.6233 155.714 31.6074 155.366 31.6074C155.232 31.6074 155.142 31.6074 155.142 31.6971C155.142 31.7869 155.187 31.7869 155.321 31.7869C155.395 31.7869 155.483 31.8005 155.562 31.8127C155.626 31.8227 155.685 31.8318 155.725 31.8318C156.084 31.9215 156.174 32.1011 156.174 32.4601ZM162.546 32.6846C162.412 32.2807 162.322 32.0114 162.142 31.9216C162.008 31.8319 161.828 31.8319 161.694 31.8319C161.604 31.8319 161.514 31.8319 161.514 31.7421C161.514 31.6523 161.604 31.6523 161.739 31.6523C162.121 31.6523 162.549 31.675 162.797 31.6881C162.898 31.6935 162.969 31.6972 162.995 31.6972C163.02 31.6972 163.075 31.6938 163.155 31.6889C163.366 31.676 163.751 31.6523 164.207 31.6523C164.342 31.6523 164.431 31.6972 164.431 31.7421C164.431 31.8319 164.342 31.8319 164.252 31.8319C164.162 31.8319 164.072 31.8319 163.983 31.8767C163.893 31.9216 163.848 32.0114 163.848 32.1011C163.848 32.2358 163.938 32.5948 164.072 33.0885C164.252 33.8066 165.239 37.0379 165.464 37.6662H165.508L167.573 32.1011C167.708 31.787 167.752 31.6972 167.842 31.6972C167.953 31.6972 168.003 31.8194 168.093 32.0385L168.108 32.0763L168.128 32.1226C168.137 32.1446 168.146 32.1674 168.156 32.1909L170.4 37.5765H170.445C170.625 36.8584 171.477 34.031 171.881 32.7743C171.971 32.5051 171.971 32.2807 171.971 32.146C171.971 31.9665 171.881 31.8319 171.477 31.8319C171.388 31.8319 171.298 31.787 171.298 31.7421C171.298 31.6523 171.388 31.6523 171.522 31.6523C171.941 31.6523 172.291 31.6755 172.488 31.6885C172.565 31.6937 172.619 31.6972 172.644 31.6972C172.674 31.6972 172.744 31.6922 172.837 31.6856C173.023 31.6723 173.303 31.6523 173.542 31.6523C173.677 31.6523 173.721 31.6523 173.721 31.7421C173.721 31.8319 173.677 31.8319 173.587 31.8319C173.497 31.8319 173.318 31.8319 173.228 31.8767C173.018 31.9466 172.917 32.2336 172.777 32.6322C172.737 32.7461 172.694 32.8691 172.644 32.9987C172.239 34.1032 171.412 36.5969 170.83 38.3493L170.826 38.3615L170.624 38.9692L170.49 39.3716L170.475 39.4131C170.352 39.7411 170.305 39.8653 170.176 39.8653C170.086 39.8653 169.996 39.7307 169.862 39.3268L167.618 33.9412C167.552 34.0994 167.385 34.5404 167.17 35.1094L167.17 35.1101C166.653 36.4779 165.857 38.5847 165.508 39.2819C165.478 39.3434 165.45 39.3991 165.426 39.4493C165.27 39.7651 165.221 39.8653 165.105 39.8653C165.015 39.8653 164.925 39.7307 164.88 39.4614L162.546 32.6846ZM180.364 35.8706C180.543 36.1847 180.633 36.4091 180.633 36.9926V37.9351C180.633 38.1146 180.633 38.5634 180.588 39.0122C180.588 39.3263 180.498 39.5507 180.274 39.5956C180.184 39.6405 180.05 39.6405 179.915 39.6405C179.78 39.6405 179.735 39.6854 179.735 39.7302C179.735 39.82 179.825 39.82 179.96 39.82C180.182 39.82 180.486 39.8064 180.759 39.7942C180.982 39.7842 181.185 39.7751 181.306 39.7751C181.434 39.7751 181.62 39.7825 181.842 39.7913C182.167 39.8041 182.567 39.82 182.967 39.82C183.101 39.82 183.191 39.82 183.191 39.7302C183.191 39.6854 183.146 39.6405 183.012 39.6405C182.944 39.6405 182.843 39.6292 182.742 39.618C182.641 39.6068 182.54 39.5956 182.473 39.5956C182.159 39.5507 182.024 39.3263 182.024 39.0122C181.979 38.5635 181.979 38.1149 181.979 37.9352V37.9351V37.0375C181.979 36.6784 181.979 36.3643 182.159 35.9603C182.383 35.5116 183.864 32.9983 184.223 32.5495C184.448 32.2353 184.582 32.1007 184.807 32.0109C184.986 31.9212 185.211 31.8763 185.3 31.8763C185.435 31.8763 185.525 31.8763 185.525 31.7865C185.525 31.6968 185.48 31.6968 185.345 31.6968C185.233 31.6968 184.997 31.708 184.762 31.7192C184.526 31.7304 184.291 31.7416 184.178 31.7416C184.053 31.7416 183.909 31.732 183.755 31.7216C183.576 31.7097 183.383 31.6968 183.191 31.6968C183.056 31.6968 183.012 31.6968 183.012 31.7865C183.012 31.8314 183.101 31.8763 183.191 31.8763C183.371 31.9212 183.415 32.0558 183.415 32.1456C183.415 32.2802 183.371 32.4597 183.281 32.6841C183.214 32.8186 182.983 33.2299 182.716 33.706C182.269 34.5014 181.721 35.4777 181.665 35.6462C181.486 35.3769 179.96 32.7739 179.825 32.4597C179.735 32.3251 179.69 32.1905 179.69 32.1007C179.69 32.0109 179.735 31.9212 179.825 31.9212C179.96 31.8763 180.049 31.8314 180.049 31.7865C180.049 31.7416 179.96 31.6968 179.87 31.6968C179.575 31.6968 179.296 31.7128 179.072 31.7257C178.92 31.7344 178.793 31.7416 178.703 31.7416C178.493 31.7416 178.128 31.7262 177.827 31.7135C177.613 31.7045 177.431 31.6968 177.357 31.6968C177.222 31.6968 177.132 31.7416 177.132 31.7865C177.132 31.8763 177.222 31.8763 177.312 31.8763C177.446 31.8763 177.626 31.9212 177.761 32.0109C177.94 32.1007 178.209 32.37 178.479 32.7739C178.838 33.3573 180.274 35.6911 180.364 35.8706ZM185.747 35.6913C185.747 33.8513 186.958 31.4727 190.19 31.4727C192.838 31.4727 194.498 33.0434 194.498 35.4669C194.498 37.9353 192.793 39.8651 190.055 39.8651C187.003 39.91 185.747 37.6212 185.747 35.6913ZM193.017 35.9157C193.017 33.5371 191.626 32.0112 189.876 32.0112C188.664 32.0112 187.228 32.6844 187.228 35.3772C187.228 37.6212 188.439 39.3715 190.504 39.3715C191.267 39.3715 193.017 39.0124 193.017 35.9157ZM197.326 32.4592V34.748V36.5432C197.326 37.5306 197.326 38.3833 197.281 38.8321C197.236 39.1462 197.191 39.3706 196.967 39.4155C196.832 39.4604 196.743 39.4604 196.563 39.4604C196.428 39.4604 196.383 39.5053 196.383 39.5502C196.383 39.595 196.473 39.6399 196.608 39.6399C196.839 39.6399 197.159 39.6252 197.432 39.6126C197.636 39.6032 197.814 39.595 197.909 39.595C197.952 39.595 198.062 39.5995 198.212 39.6057C198.537 39.6189 199.051 39.6399 199.48 39.6399C199.615 39.6399 199.705 39.6399 199.705 39.5502C199.705 39.5053 199.66 39.4604 199.57 39.4604C199.507 39.4604 199.426 39.4507 199.338 39.4404C199.237 39.4284 199.128 39.4155 199.031 39.4155C198.717 39.3706 198.672 39.1462 198.627 38.8321C198.583 38.3834 198.583 37.5311 198.583 36.5442V36.5432V36.4086C198.583 36.3188 198.627 36.3188 198.672 36.3188H199.615C199.66 36.3188 199.749 36.3637 199.794 36.4086C199.836 36.4638 199.911 36.5699 200.009 36.7074L200.01 36.7093L200.013 36.7139L200.014 36.7155C200.234 37.0252 200.563 37.4891 200.871 37.8896L200.964 38.0089C201.54 38.7505 201.926 39.2472 202.352 39.4604C202.667 39.6399 202.936 39.6848 203.519 39.6848H204.552C204.686 39.6848 204.776 39.6848 204.776 39.595C204.776 39.5501 204.731 39.5053 204.641 39.5053C204.601 39.5053 204.561 39.4962 204.516 39.4862C204.462 39.474 204.401 39.4604 204.327 39.4604C204.148 39.4604 203.699 39.3706 203.115 38.7423C202.487 38.0691 201.724 37.1266 200.782 35.9149C201.904 35.0622 202.218 34.3441 202.218 33.5363C202.218 32.8182 201.814 32.2796 201.5 32.0552C200.916 31.6513 200.198 31.6064 199.525 31.6064C199.346 31.6064 199.054 31.6177 198.762 31.6289C198.47 31.6401 198.179 31.6513 197.999 31.6513C197.913 31.6513 197.762 31.6448 197.574 31.6366C197.272 31.6235 196.878 31.6064 196.518 31.6064C196.383 31.6064 196.294 31.6065 196.294 31.6962C196.294 31.786 196.339 31.786 196.473 31.786C196.547 31.786 196.635 31.7996 196.714 31.8118C196.778 31.8218 196.837 31.8308 196.877 31.8308C197.236 31.9206 197.326 32.1001 197.326 32.4592ZM198.672 35.7803C198.583 35.7803 198.583 35.7354 198.583 35.6007L198.538 32.2796C198.538 32.1899 198.538 32.145 198.627 32.145C198.762 32.1001 198.942 32.1001 199.211 32.1001C199.884 32.1001 200.871 32.5489 200.871 34.0748C200.871 34.9724 200.557 35.4661 200.243 35.6905C200.064 35.8251 199.929 35.87 199.48 35.87C199.211 35.87 198.897 35.87 198.672 35.7803ZM207.243 35.2417H207.288C207.429 35.0833 207.756 34.7456 208.121 34.3692L208.122 34.3682C208.687 33.7847 209.341 33.1085 209.532 32.8631C209.846 32.504 210.071 32.2348 210.071 32.0552C210.071 31.9206 210.026 31.8757 209.936 31.8308C209.846 31.8308 209.802 31.786 209.802 31.7411C209.802 31.6513 209.846 31.6513 209.981 31.6513C210.084 31.6513 210.262 31.6607 210.455 31.6709C210.684 31.683 210.933 31.6962 211.103 31.6962C211.26 31.6962 211.496 31.685 211.731 31.6738C211.967 31.6625 212.203 31.6513 212.36 31.6513C212.449 31.6513 212.539 31.6513 212.539 31.7411C212.539 31.8308 212.494 31.8308 212.36 31.8308C212.225 31.8308 211.956 31.8757 211.731 31.9655C211.417 32.1001 211.013 32.3245 210.565 32.7733L208.231 35.1071C208.635 35.6007 210.699 37.8896 211.148 38.2486C211.237 38.3295 211.325 38.4119 211.412 38.4939C211.808 38.8667 212.196 39.2316 212.674 39.4155C212.988 39.5501 213.212 39.595 213.347 39.595C213.437 39.595 213.482 39.595 213.482 39.6848C213.482 39.7745 213.437 39.7746 213.212 39.7746H212.27H211.552C210.968 39.7297 210.699 39.5053 210.206 39.0565C209.757 38.6526 207.602 36.1842 207.378 35.87L207.243 35.6905V36.6778C207.243 37.6652 207.243 38.5179 207.288 38.9667C207.288 39.2809 207.423 39.5053 207.692 39.5502C207.76 39.5502 207.861 39.5614 207.962 39.5726C208.063 39.5838 208.163 39.595 208.231 39.595C208.321 39.595 208.365 39.6399 208.365 39.6848C208.365 39.7745 208.276 39.7746 208.141 39.7746C207.794 39.7746 207.415 39.7586 207.108 39.7458L207.108 39.7458C206.899 39.737 206.724 39.7297 206.615 39.7297C206.494 39.7297 206.291 39.7387 206.068 39.7487L206.068 39.7487L206.068 39.7487C205.795 39.761 205.491 39.7746 205.269 39.7746C205.134 39.7746 205.044 39.7297 205.044 39.6848C205.044 39.6399 205.089 39.595 205.224 39.595C205.403 39.595 205.493 39.595 205.628 39.5502C205.852 39.5053 205.897 39.2809 205.942 38.9667C205.987 38.5179 205.987 37.6652 205.987 36.6778V34.748V32.4592C205.987 32.1001 205.897 31.9206 205.538 31.8308C205.498 31.8308 205.439 31.8218 205.375 31.8118C205.296 31.7996 205.208 31.786 205.134 31.786C204.999 31.786 204.955 31.786 204.955 31.6962C204.955 31.6065 205.044 31.6064 205.179 31.6064C205.539 31.6064 205.933 31.6235 206.235 31.6366C206.422 31.6448 206.574 31.6513 206.66 31.6513C206.785 31.6513 206.997 31.6417 207.224 31.6313C207.486 31.6193 207.769 31.6064 207.962 31.6064C208.096 31.6064 208.186 31.6065 208.186 31.6962C208.186 31.786 208.141 31.786 208.051 31.786C207.962 31.786 207.872 31.786 207.737 31.8308C207.468 31.8757 207.378 32.0552 207.333 32.4592V34.748L207.243 35.2417ZM17.0015 20.8354H6.94849V22.496H16.7783V22.497H26.8762V20.8364H17.0015V20.8354Z"/>
</svg>
